<?xml version="1.0" standalone="no"?><!DOCTYPE svg PUBLIC "-//W3C//DTD SVG 1.1//EN" "http://www.w3.org/Graphics/SVG/1.1/DTD/svg11.dtd"><svg t="1608791220225" class="icon" viewBox="0 0 1024 1024" version="1.1" xmlns="http://www.w3.org/2000/svg" p-id="3313" xmlns:xlink="http://www.w3.org/1999/xlink" width="16" height="16"><defs><style type="text/css"></style></defs><path d="M96 264h832c17.674 0 32-14.326 32-32V152c0-17.674-14.326-32-32-32H96C78.326 120 64 134.326 64 152v80c0 17.674 14.326 32 32 32z m0 320h832c17.674 0 32-14.326 32-32v-80c0-17.674-14.326-32-32-32H96c-17.674 0-32 14.326-32 32v80c0 17.674 14.326 32 32 32z m0 320h832c17.674 0 32-14.326 32-32v-80c0-17.674-14.326-32-32-32H96c-17.674 0-32 14.326-32 32v80c0 17.674 14.326 32 32 32z" fill="" p-id="3314"></path></svg>