<?xml version="1.0" standalone="no"?><!DOCTYPE svg PUBLIC "-//W3C//DTD SVG 1.1//EN" "http://www.w3.org/Graphics/SVG/1.1/DTD/svg11.dtd"><svg t="1608791718321" class="icon" viewBox="0 0 1024 1024" version="1.1" xmlns="http://www.w3.org/2000/svg" p-id="5604" xmlns:xlink="http://www.w3.org/1999/xlink" width="16" height="16"><defs><style type="text/css"></style></defs><path d="M896 640c70.688 0 128-57.312 128-128s-57.312-128-128-128h-21.856a381.845333 381.845333 0 0 0-15.573333-37.557333l15.466666-15.456c49.984-50.005333 49.984-131.029333 0-181.024-50.005333-49.984-131.029333-49.984-181.024 0l-15.456 15.466666A384.458667 384.458667 0 0 0 640 149.856V128c0-70.688-57.312-128-128-128S384 57.312 384 128v21.856a381.845333 381.845333 0 0 0-37.557333 15.573333l-15.456-15.466666c-49.994667-49.984-131.029333-49.984-181.024 0-49.984 49.994667-49.984 131.029333 0 181.024l15.466666 15.456A384.458667 384.458667 0 0 0 149.856 384H128C57.312 384 0 441.312 0 512s57.312 128 128 128h21.856a381.845333 381.845333 0 0 0 15.573333 37.557333l-15.466666 15.445334c-49.984 50.005333-49.984 131.029333 0 181.034666 49.994667 49.984 131.029333 49.984 181.024 0l15.456-15.466666A384.458667 384.458667 0 0 0 384 874.144V896c0 70.688 57.312 128 128 128s128-57.312 128-128v-21.856a381.845333 381.845333 0 0 0 37.557333-15.573333l15.456 15.466666c49.994667 49.984 131.018667 49.984 181.024 0 49.984-50.005333 49.984-131.029333 0-181.034666l-15.466666-15.445334A384.458667 384.458667 0 0 0 874.144 640H896z m-88.352-85.333333a297.322667 297.322667 0 0 1-56.437333 136.213333l60.810666 60.810667 1.674667 1.664a42.666667 42.666667 0 0 1-60.341333 60.341333l-1.664-1.674667-60.810667-60.810666A297.162667 297.162667 0 0 1 554.666667 807.648V896a42.666667 42.666667 0 0 1-85.333334 0v-88.352a297.12 297.12 0 0 1-136.202666-56.437333l-60.821334 60.810666-1.664 1.674667a42.666667 42.666667 0 0 1-60.341333-60.341333l1.674667-1.664 60.810666-60.810667A297.386667 297.386667 0 0 1 216.352 554.666667H128a42.666667 42.666667 0 0 1 0-85.333334h88.352a297.344 297.344 0 0 1 56.437333-136.202666l-60.810666-60.821334-1.674667-1.664a42.666667 42.666667 0 0 1 60.341333-60.341333l1.664 1.674667 60.821334 60.810666A297.237333 297.237333 0 0 1 469.333333 216.352V128a42.666667 42.666667 0 0 1 85.333334 0v88.352a297.322667 297.322667 0 0 1 136.213333 56.437333l60.810667-60.810666 1.664-1.674667a42.666667 42.666667 0 0 1 60.341333 60.341333l-1.674667 1.664-60.810666 60.821334A297.12 297.12 0 0 1 807.648 469.333333H896a42.666667 42.666667 0 0 1 0 85.333334h-88.352zM512 341.333333c-94.261333 0-170.666667 76.405333-170.666667 170.666667s76.405333 170.666667 170.666667 170.666667 170.666667-76.405333 170.666667-170.666667-76.405333-170.666667-170.666667-170.666667z m0 256a85.333333 85.333333 0 1 1 0-170.666666 85.333333 85.333333 0 0 1 0 170.666666z" p-id="5605"></path></svg>