<?xml version="1.0" standalone="no"?><!DOCTYPE svg PUBLIC "-//W3C//DTD SVG 1.1//EN" "http://www.w3.org/Graphics/SVG/1.1/DTD/svg11.dtd"><svg t="1609210816107" class="icon" viewBox="0 0 1024 1024" version="1.1" xmlns="http://www.w3.org/2000/svg" p-id="2721" xmlns:xlink="http://www.w3.org/1999/xlink" width="16" height="16"><defs><style type="text/css"></style></defs><path d="M981.4 213.3C981.4 95.7 885.6 0 768 0H256C138.4 0 42.7 95.7 42.7 213.3V896c0 70.7 57.3 128 128 128h682.7c67.9 0 123-53.1 127.2-120h0.8V213.3zM256 85.3h512c70.6 0 128 57.4 128 128v562.5c-13.4-4.8-27.6-7.8-42.7-7.8H170.6c-15 0-29.2 3.1-42.6 7.8V213.3c0-70.5 57.4-128 128-128z m597.3 853.4H170.6c-23.5 0-42.7-19.1-42.7-42.6v-0.1c0.1-23.5 19.2-42.6 42.6-42.6h682.7c23.5 0 42.7 19.1 42.7 42.7 0.1 23.4-19 42.6-42.6 42.6z" p-id="2722"></path><path d="M387.1 621h243c82.5 0 137.9-47.8 137.9-119 0-61-39.8-114.2-97.6-131.8C641.3 309 579.9 270 511.8 270c-64.3 0-124 35.9-154.5 92.3C298.1 376 256 428.5 256 489.9c0 72.3 58.8 131.1 131.1 131.1z m-7.8-176.2c22.5-3.8 41.5-18.1 51-38.1 14.9-31.3 46.9-51.5 81.4-51.5 36.3 0 69 21.6 83.2 55.1 8.6 20.4 26.1 35.3 48 40.7 23.4 5.9 39.8 26.8 39.8 50.9 0 22.4-17.7 33.7-52.5 33.7h-243c-25.3 0-45.8-20.5-45.8-45.8-0.1-22.2 15.9-41.2 37.9-45z" p-id="2723"></path></svg>