<?xml version="1.0" standalone="no"?><!DOCTYPE svg PUBLIC "-//W3C//DTD SVG 1.1//EN" "http://www.w3.org/Graphics/SVG/1.1/DTD/svg11.dtd"><svg t="1608804169517" class="icon" viewBox="0 0 1024 1024" version="1.1" xmlns="http://www.w3.org/2000/svg" p-id="4164" xmlns:xlink="http://www.w3.org/1999/xlink" width="16" height="16"><defs><style type="text/css"></style></defs><path d="M954.181818 174.545455 69.818182 174.545455c-12.846545 0-23.272727 10.426182-23.272727 23.272727l0 628.363636c0 12.846545 10.426182 23.272727 23.272727 23.272727l884.363636 0c12.846545 0 23.272727-10.426182 23.272727-23.272727L977.454545 197.818182C977.454545 184.971636 967.028364 174.545455 954.181818 174.545455zM930.909091 221.090909l0 227.933091C900.212364 427.147636 849.861818 407.272727 768 407.272727c-135.168 0-230.586182 133.201455-269.44 198.912C473.134545 578.722909 422.760727 546.909091 325.818182 546.909091c-104.238545 0-185.704727 103.517091-232.727273 182.551273L93.090909 221.090909 930.909091 221.090909zM105.960727 802.909091C144.756364 724.235636 229.422545 593.454545 325.818182 593.454545c129.501091 0 151.424 62.324364 152.168727 64.581818 2.664727 9.309091 10.810182 15.988364 20.456727 16.779636 9.623273 0.884364 18.792727-4.456727 22.946909-13.207273C522.379636 659.537455 621.870545 453.818182 768 453.818182c127.138909 0 157.684364 51.048727 162.909091 62.405818L930.909091 802.909091 105.960727 802.909091z" p-id="4165"></path><path d="M267.636364 453.818182c44.916364 0 81.454545-36.538182 81.454545-81.454545s-36.538182-81.454545-81.454545-81.454545-81.454545 36.538182-81.454545 81.454545S222.72 453.818182 267.636364 453.818182zM267.636364 337.454545c19.246545 0 34.909091 15.662545 34.909091 34.909091s-15.662545 34.909091-34.909091 34.909091-34.909091-15.662545-34.909091-34.909091S248.389818 337.454545 267.636364 337.454545z" p-id="4166"></path></svg>