<?xml version="1.0" standalone="no"?><!DOCTYPE svg PUBLIC "-//W3C//DTD SVG 1.1//EN" "http://www.w3.org/Graphics/SVG/1.1/DTD/svg11.dtd"><svg t="1608801159754" class="icon" viewBox="0 0 1024 1024" version="1.1" xmlns="http://www.w3.org/2000/svg" p-id="11784" xmlns:xlink="http://www.w3.org/1999/xlink" width="16" height="16"><defs><style type="text/css"></style></defs><path d="M832 128H192c-35.2 0-64 28.8-64 64v640c0 35.2 28.8 64 64 64h640c35.2 0 64-28.8 64-64V192c0-35.2-28.8-64-64-64z m0 64v192H192V192h640zM192 832V448h640v384H192z" p-id="11785"></path><path d="M736 288m-32 0a32 32 0 1 0 64 0 32 32 0 1 0-64 0Z" p-id="11786"></path><path d="M608 288m-32 0a32 32 0 1 0 64 0 32 32 0 1 0-64 0Z" p-id="11787"></path><path d="M480 288m-32 0a32 32 0 1 0 64 0 32 32 0 1 0-64 0Z" p-id="11788"></path></svg>