<?xml version="1.0" standalone="no"?><!DOCTYPE svg PUBLIC "-//W3C//DTD SVG 1.1//EN" "http://www.w3.org/Graphics/SVG/1.1/DTD/svg11.dtd"><svg t="1608798422545" class="icon" viewBox="0 0 1024 1024" version="1.1" xmlns="http://www.w3.org/2000/svg" p-id="10563" xmlns:xlink="http://www.w3.org/1999/xlink" width="16" height="16"><defs><style type="text/css"></style></defs><path d="M512 42.666667C285.962667 42.666667 42.666667 96.074667 42.666667 213.333333v597.333334c0 117.258667 243.296 170.666667 469.333333 170.666666s469.333333-53.408 469.333333-170.666666V213.333333C981.333333 96.074667 738.037333 42.666667 512 42.666667z m0 85.333333c247.349333 0 375.253333 61.184 383.850667 85.333333-8.597333 24.149333-136.501333 85.333333-383.850667 85.333334-247.349333 0-375.253333-61.184-383.861333-85.333334 8.608-24.149333 136.512-85.333333 383.861333-85.333333zM128 317.045333C218.805333 362.549333 368.821333 384 512 384c143.189333 0 293.205333-21.472 384.010667-66.976l0.021333 194.442667c-6.762667 23.712-134.709333 85.877333-384.032 85.877333-249.6 0-377.557333-62.304-384-85.333333V317.045333zM512 896c-249.6 0-377.557333-62.304-384-85.333333V615.712C218.805333 661.216 368.821333 682.666667 512 682.666667c143.210667 0 293.248-21.482667 384.042667-66.997334l0.021333 194.378667C889.557333 833.696 761.6 896 512 896z" p-id="10564"></path></svg>